<?xml version="1.0" encoding="UTF-8"?>
<svg xmlns="http://www.w3.org/2000/svg" xmlns:xlink="http://www.w3.org/1999/xlink" width="71pt" height="20pt" viewBox="0 0 71 20" version="1.1">
<defs>
<clipPath id="clip1">
  <path d="M 9 13 L 16 13 L 16 16 L 9 16 Z M 9 13 "/>
</clipPath>
<clipPath id="clip2">
  <path d="M 14.191406 13.933594 C 14.230469 13.859375 14.238281 13.746094 13.832031 13.796875 C 13.832031 13.796875 12.730469 13.886719 12.675781 14.609375 L 12.652344 16 L 12.386719 16 L 12.363281 14.609375 C 12.308594 13.886719 11.207031 13.796875 11.207031 13.796875 C 10.800781 13.746094 10.808594 13.859375 10.847656 13.933594 C 10.453125 13.550781 9.390625 13.601562 9.390625 13.601562 C 9.023438 13.675781 9.367188 13.808594 9.367188 13.808594 C 9.945312 13.925781 9.996094 14.28125 9.996094 14.28125 L 9.996094 15.285156 L 10.058594 16.0625 C 10.1875 16.410156 10.511719 16.613281 10.832031 16.734375 L 14.214844 16.730469 C 14.625 16.574219 15.042969 16.277344 15.042969 15.71875 L 15.042969 14.28125 C 15.042969 14.28125 15.09375 13.925781 15.671875 13.808594 C 15.671875 13.808594 16.015625 13.675781 15.648438 13.601562 C 15.648438 13.601562 15.601562 13.597656 15.527344 13.597656 C 15.238281 13.597656 14.503906 13.628906 14.191406 13.933594 M 10.996094 15.363281 L 10.996094 14.269531 C 10.996094 14.160156 10.960938 14.070312 10.90625 13.996094 C 11.285156 14.164062 11.3125 14.582031 11.3125 14.582031 L 11.3125 15.949219 C 10.933594 15.796875 10.996094 15.363281 10.996094 15.363281 M 13.730469 14.582031 C 13.730469 14.582031 13.753906 14.160156 14.136719 13.996094 C 14.078125 14.070312 14.042969 14.160156 14.042969 14.269531 L 14.042969 15.363281 C 14.042969 15.363281 14.109375 15.765625 13.730469 15.933594 Z M 13.730469 14.582031 "/>
</clipPath>
</defs>
<g id="surface1">
<path style=" stroke:none;fill-rule:nonzero;fill:rgb(62.745098%,86.27451%,94.901961%);fill-opacity:1;" d="M 18.515625 13.976562 C 18.515625 14.621094 15.867188 15.140625 12.601562 15.140625 C 9.335938 15.140625 6.6875 14.621094 6.6875 13.976562 C 6.6875 13.332031 9.335938 12.808594 12.601562 12.808594 C 15.867188 12.808594 18.515625 13.332031 18.515625 13.976562 "/>
<g clip-path="url(#clip1)" clip-rule="nonzero">
<g clip-path="url(#clip2)" clip-rule="nonzero">
<path style=" stroke:none;fill-rule:nonzero;fill:rgb(50.980392%,74.117647%,90.588235%);fill-opacity:1;" d="M 18.515625 13.976562 C 18.515625 14.621094 15.867188 15.140625 12.601562 15.140625 C 9.335938 15.140625 6.6875 14.621094 6.6875 13.976562 C 6.6875 13.332031 9.335938 12.808594 12.601562 12.808594 C 15.867188 12.808594 18.515625 13.332031 18.515625 13.976562 "/>
</g>
</g>
<path style=" stroke:none;fill-rule:nonzero;fill:rgb(62.745098%,86.27451%,94.901961%);fill-opacity:1;" d="M 5.84375 10.546875 L 5.675781 10.882812 C 5.675781 10.882812 5.628906 11.003906 5.832031 11.023438 C 6.042969 11.023438 6.027344 10.910156 6.011719 10.875 Z M 5.84375 10.546875 "/>
<path style=" stroke:none;fill-rule:nonzero;fill:rgb(16.078431%,16.078431%,16.078431%);fill-opacity:1;" d="M 23.039062 9.140625 L 23.054688 9.097656 C 21.320312 8.902344 19.539062 8.902344 18.460938 8.925781 C 18.636719 8.566406 18.691406 8.152344 18.691406 7.691406 C 18.691406 7.03125 18.25 6.503906 17.535156 6.101562 C 17.660156 5.875 17.828125 5.367188 17.367188 4.722656 C 17.367188 4.722656 16.558594 4.578125 14.726562 5.265625 C 14.011719 5.167969 13.246094 5.117188 12.480469 5.117188 C 11.640625 5.117188 10.789062 5.175781 9.996094 5.300781 C 8.109375 4.574219 7.273438 4.722656 7.273438 4.722656 C 6.730469 5.488281 7.066406 6.058594 7.167969 6.199219 C 6.527344 6.585938 6.136719 7.085938 6.136719 7.691406 C 6.136719 8.152344 6.230469 8.566406 6.457031 8.921875 C 5.371094 8.902344 3.65625 8.910156 1.980469 9.097656 L 1.996094 9.140625 C 3.679688 8.953125 5.40625 8.945312 6.484375 8.96875 C 6.535156 9.042969 6.589844 9.113281 6.652344 9.183594 C 5.585938 9.203125 3.761719 9.28125 2.015625 9.558594 L 2.035156 9.601562 C 3.796875 9.320312 5.636719 9.246094 6.691406 9.226562 C 7.332031 9.898438 8.589844 10.332031 10.828125 10.464844 C 10.507812 10.585938 10.183594 10.789062 10.054688 11.136719 C 9.621094 11.253906 8.25 11.539062 7.429688 10.742188 C 7.429688 10.742188 6.96875 10.269531 6.089844 10.230469 C 6.089844 10.230469 5.234375 10.222656 6.027344 10.53125 C 6.027344 10.53125 6.601562 10.683594 6.996094 11.25 C 6.996094 11.25 7.507812 12.226562 9.992188 11.914062 L 9.992188 12.917969 C 9.992188 12.917969 9.941406 13.273438 9.363281 13.390625 C 9.363281 13.390625 9.019531 13.523438 9.386719 13.597656 C 9.386719 13.597656 10.992188 13.671875 10.992188 12.933594 L 10.992188 11.835938 C 10.992188 11.835938 10.925781 11.402344 11.304688 11.25 L 11.304688 13.050781 C 11.304688 13.050781 11.28125 13.480469 10.886719 13.644531 C 10.886719 13.644531 10.621094 13.910156 11.203125 13.835938 C 11.203125 13.835938 12.304688 13.746094 12.359375 13.023438 L 12.382812 11.199219 L 12.648438 11.199219 L 12.671875 13.023438 C 12.726562 13.746094 13.828125 13.835938 13.828125 13.835938 C 14.40625 13.910156 14.144531 13.644531 14.144531 13.644531 C 13.75 13.480469 13.722656 13.050781 13.722656 13.050781 L 13.722656 11.269531 C 14.101562 11.433594 14.039062 11.835938 14.039062 11.835938 L 14.039062 12.933594 C 14.039062 13.671875 15.644531 13.601562 15.644531 13.601562 C 16.011719 13.527344 15.667969 13.390625 15.667969 13.390625 C 15.089844 13.273438 15.039062 12.917969 15.039062 12.917969 L 15.039062 11.484375 C 15.039062 10.921875 14.621094 10.625 14.210938 10.46875 C 16.59375 10.335938 17.742188 9.902344 18.269531 9.226562 C 19.316406 9.242188 21.195312 9.316406 22.996094 9.601562 L 23.015625 9.558594 C 21.226562 9.273438 19.359375 9.199219 18.304688 9.183594 C 18.351562 9.117188 18.398438 9.042969 18.433594 8.972656 C 19.503906 8.945312 21.292969 8.945312 23.035156 9.140625 "/>
<path style=" stroke:none;fill-rule:nonzero;fill:rgb(96.078431%,80.392157%,70.980392%);fill-opacity:1;" d="M 16.359375 7.660156 C 16.871094 7.921875 17.171875 8.242188 17.171875 8.582031 C 17.171875 10.175781 15.066406 10.21875 12.464844 10.21875 C 9.863281 10.21875 7.753906 10 7.753906 8.582031 C 7.753906 8.242188 8.050781 7.929688 8.558594 7.667969 C 9.40625 7.230469 10.835938 7.460938 12.464844 7.460938 C 14.082031 7.460938 15.511719 7.230469 16.359375 7.660156 "/>
<path style=" stroke:none;fill-rule:nonzero;fill:rgb(100%,100%,100%);fill-opacity:1;" d="M 10.898438 8.664062 C 10.898438 9.101562 10.457031 9.457031 9.917969 9.457031 C 9.375 9.457031 8.9375 9.101562 8.9375 8.664062 C 8.9375 8.226562 9.375 7.867188 9.917969 7.867188 C 10.457031 7.867188 10.898438 8.226562 10.898438 8.664062 "/>
<path style=" stroke:none;fill-rule:nonzero;fill:rgb(69.411765%,39.215686%,35.294118%);fill-opacity:1;" d="M 10.582031 8.671875 C 10.582031 8.964844 10.289062 9.203125 9.929688 9.203125 C 9.570312 9.203125 9.277344 8.964844 9.277344 8.671875 C 9.277344 8.382812 9.570312 8.144531 9.929688 8.144531 C 10.289062 8.144531 10.582031 8.382812 10.582031 8.671875 "/>
<path style=" stroke:none;fill-rule:nonzero;fill:rgb(100%,100%,100%);fill-opacity:1;" d="M 16.15625 8.664062 C 16.15625 9.101562 15.714844 9.457031 15.175781 9.457031 C 14.632812 9.457031 14.195312 9.101562 14.195312 8.664062 C 14.195312 8.226562 14.632812 7.867188 15.175781 7.867188 C 15.714844 7.867188 16.15625 8.226562 16.15625 8.664062 "/>
<path style=" stroke:none;fill-rule:nonzero;fill:rgb(69.411765%,39.215686%,35.294118%);fill-opacity:1;" d="M 15.839844 8.671875 C 15.839844 8.964844 15.546875 9.203125 15.1875 9.203125 C 14.828125 9.203125 14.535156 8.964844 14.535156 8.671875 C 14.535156 8.382812 14.828125 8.144531 15.1875 8.144531 C 15.546875 8.144531 15.839844 8.382812 15.839844 8.671875 M 12.722656 9.367188 C 12.722656 9.445312 12.613281 9.507812 12.476562 9.507812 C 12.34375 9.507812 12.230469 9.445312 12.230469 9.367188 C 12.230469 9.292969 12.34375 9.230469 12.476562 9.230469 C 12.613281 9.230469 12.722656 9.292969 12.722656 9.367188 M 11.90625 9.71875 C 11.890625 9.695312 11.914062 9.667969 11.953125 9.660156 C 11.996094 9.652344 12.039062 9.664062 12.054688 9.6875 C 12.117188 9.789062 12.285156 9.855469 12.476562 9.855469 C 12.664062 9.855469 12.832031 9.789062 12.894531 9.6875 C 12.910156 9.664062 12.957031 9.652344 12.996094 9.660156 C 13.039062 9.667969 13.058594 9.695312 13.042969 9.71875 C 12.957031 9.851562 12.730469 9.941406 12.476562 9.941406 C 12.222656 9.941406 11.992188 9.851562 11.90625 9.71875 "/>
<path style=" stroke:none;fill-rule:nonzero;fill:rgb(77.254902%,90.196078%,85.490196%);fill-opacity:1;" d="M 6.472656 10.351562 C 6.472656 10.386719 6.398438 10.417969 6.300781 10.417969 C 6.207031 10.417969 6.132812 10.386719 6.132812 10.351562 C 6.132812 10.3125 6.207031 10.28125 6.300781 10.28125 C 6.398438 10.28125 6.472656 10.3125 6.472656 10.351562 M 6.945312 10.496094 C 6.945312 10.535156 6.871094 10.5625 6.777344 10.5625 C 6.679688 10.5625 6.605469 10.535156 6.605469 10.496094 C 6.605469 10.460938 6.679688 10.429688 6.777344 10.429688 C 6.871094 10.429688 6.945312 10.460938 6.945312 10.496094 M 7.234375 10.691406 C 7.234375 10.726562 7.160156 10.757812 7.066406 10.757812 C 6.96875 10.757812 6.894531 10.726562 6.894531 10.691406 C 6.894531 10.652344 6.96875 10.621094 7.066406 10.621094 C 7.160156 10.621094 7.234375 10.652344 7.234375 10.691406 M 7.5 10.910156 C 7.5 10.949219 7.421875 10.980469 7.328125 10.980469 C 7.234375 10.980469 7.15625 10.949219 7.15625 10.910156 C 7.15625 10.875 7.234375 10.84375 7.328125 10.84375 C 7.421875 10.84375 7.5 10.875 7.5 10.910156 M 7.789062 11.121094 C 7.789062 11.15625 7.710938 11.1875 7.617188 11.1875 C 7.523438 11.1875 7.445312 11.15625 7.445312 11.121094 C 7.445312 11.082031 7.523438 11.054688 7.617188 11.054688 C 7.710938 11.054688 7.789062 11.082031 7.789062 11.121094 M 8.183594 11.296875 C 8.183594 11.335938 8.105469 11.363281 8.011719 11.363281 C 7.917969 11.363281 7.839844 11.335938 7.839844 11.296875 C 7.839844 11.261719 7.917969 11.230469 8.011719 11.230469 C 8.105469 11.230469 8.183594 11.261719 8.183594 11.296875 "/>
<path style=" stroke:none;fill-rule:nonzero;fill:rgb(77.254902%,90.196078%,85.490196%);fill-opacity:1;" d="M 8.734375 11.417969 C 8.734375 11.453125 8.65625 11.484375 8.5625 11.484375 C 8.46875 11.484375 8.390625 11.453125 8.390625 11.417969 C 8.390625 11.378906 8.46875 11.347656 8.5625 11.347656 C 8.65625 11.347656 8.734375 11.378906 8.734375 11.417969 "/>
<path style=" stroke:none;fill-rule:nonzero;fill:rgb(77.254902%,90.196078%,85.490196%);fill-opacity:1;" d="M 9.285156 11.417969 C 9.285156 11.453125 9.207031 11.484375 9.113281 11.484375 C 9.019531 11.484375 8.941406 11.453125 8.941406 11.417969 C 8.941406 11.378906 9.019531 11.347656 9.113281 11.347656 C 9.207031 11.347656 9.285156 11.378906 9.285156 11.417969 "/>
<path style=" stroke:none;fill-rule:nonzero;fill:rgb(77.254902%,90.196078%,85.490196%);fill-opacity:1;" d="M 9.839844 11.363281 C 9.839844 11.402344 9.765625 11.429688 9.671875 11.429688 C 9.574219 11.429688 9.5 11.402344 9.5 11.363281 C 9.5 11.328125 9.574219 11.296875 9.671875 11.296875 C 9.765625 11.296875 9.839844 11.328125 9.839844 11.363281 "/>
<path style=" stroke:none;fill-rule:nonzero;fill:rgb(0%,0%,0%);fill-opacity:1;" d="M 29.976562 7.046875 C 30.628906 7.046875 31.371094 6.957031 32.21875 6.773438 L 32.21875 7.945312 C 32.027344 7.984375 31.757812 8.027344 31.410156 8.070312 C 31.515625 8.246094 31.570312 8.410156 31.570312 8.558594 C 31.570312 9.042969 31.308594 9.46875 30.785156 9.832031 C 30.292969 10.183594 29.574219 10.410156 28.785156 10.464844 C 28.253906 10.511719 27.980469 10.675781 27.980469 10.953125 C 27.980469 11.054688 28.066406 11.15625 28.242188 11.25 C 28.46875 11.394531 28.808594 11.484375 29.25 11.523438 C 31.171875 11.691406 32.136719 12.140625 32.136719 12.875 C 32.136719 14.050781 30.890625 14.636719 28.410156 14.636719 C 27.386719 14.636719 26.546875 14.535156 25.886719 14.332031 C 25.058594 14.074219 24.636719 13.664062 24.636719 13.113281 C 24.636719 12.480469 25.261719 12.042969 26.511719 11.808594 L 26.511719 11.785156 C 26.054688 11.625 25.824219 11.382812 25.824219 11.058594 C 25.824219 10.632812 26.039062 10.367188 26.476562 10.261719 L 26.476562 10.238281 C 26.046875 10.15625 25.664062 9.964844 25.324219 9.671875 C 24.949219 9.351562 24.761719 9.011719 24.761719 8.648438 C 24.761719 8.101562 25.105469 7.648438 25.789062 7.285156 C 26.429688 6.945312 27.28125 6.761719 28.15625 6.773438 C 28.800781 6.769531 29.433594 6.863281 29.992188 7.042969 M 26.964844 8.660156 C 26.964844 9.183594 27.390625 9.441406 28.238281 9.441406 C 29.058594 9.441406 29.46875 9.175781 29.46875 8.648438 C 29.46875 8.425781 29.375 8.238281 29.1875 8.078125 C 28.957031 7.90625 28.640625 7.816406 28.238281 7.816406 C 27.390625 7.816406 26.964844 8.097656 26.964844 8.660156 M 30.074219 13.023438 C 30.074219 12.636719 29.507812 12.445312 28.378906 12.445312 C 27.289062 12.445312 26.746094 12.644531 26.746094 13.046875 C 26.746094 13.441406 27.335938 13.636719 28.519531 13.636719 C 29.554688 13.636719 30.074219 13.433594 30.074219 13.023438 M 34.496094 5.945312 C 34.105469 5.945312 33.769531 5.863281 33.484375 5.695312 C 33.222656 5.535156 33.078125 5.324219 33.082031 5.105469 C 33.082031 4.867188 33.214844 4.667969 33.484375 4.5 C 33.769531 4.335938 34.105469 4.25 34.496094 4.25 C 34.871094 4.25 35.195312 4.335938 35.460938 4.5 C 35.746094 4.667969 35.886719 4.871094 35.886719 5.105469 C 35.890625 5.324219 35.738281 5.539062 35.460938 5.695312 C 35.195312 5.863281 34.871094 5.945312 34.496094 5.945312 M 33.34375 11.878906 C 33.371094 11.726562 33.382812 11.46875 33.382812 11.105469 L 33.382812 7.570312 L 33.34375 6.832031 L 35.617188 6.832031 C 35.589844 6.976562 35.578125 7.214844 35.578125 7.546875 L 35.578125 11.039062 L 35.617188 11.878906 L 33.339844 11.878906 M 39.847656 6.832031 L 41.601562 6.832031 L 41.601562 7.933594 C 41.472656 7.933594 41.347656 7.929688 41.21875 7.921875 L 40.714844 7.910156 L 39.847656 7.910156 L 39.847656 10.027344 C 39.847656 10.535156 40.140625 10.789062 40.734375 10.789062 C 41.136719 10.789062 41.53125 10.722656 41.863281 10.59375 L 41.863281 11.726562 C 41.367188 11.878906 40.769531 11.953125 40.066406 11.953125 C 39.085938 11.953125 38.40625 11.753906 38.03125 11.363281 C 37.75 11.066406 37.605469 10.601562 37.605469 9.964844 L 37.605469 7.929688 L 37.628906 7.929688 L 37.628906 7.910156 L 37.324219 7.898438 C 37.09375 7.898438 36.863281 7.910156 36.636719 7.929688 L 36.636719 6.828125 L 37.625 6.828125 L 37.625 6.386719 C 37.625 6.171875 37.605469 6.003906 37.566406 5.875 L 39.90625 5.875 C 39.867188 6.019531 39.847656 6.179688 39.847656 6.363281 L 39.847656 6.828125 M 47.003906 6.796875 C 46.425781 6.796875 45.820312 6.910156 45.1875 7.136719 L 45.1875 5.148438 L 45.230469 4.296875 L 42.929688 4.296875 C 42.96875 4.417969 42.988281 4.703125 42.988281 5.148438 L 42.988281 11.164062 L 42.929688 11.878906 L 45.269531 11.878906 C 45.269531 11.855469 45.253906 11.765625 45.230469 11.605469 L 45.1875 11.160156 L 45.1875 8.367188 C 45.660156 8.117188 46.117188 7.992188 46.5625 7.992188 C 47.074219 7.992188 47.460938 8.136719 47.730469 8.421875 C 47.933594 8.652344 48.035156 8.933594 48.035156 9.277344 L 48.015625 10.8125 C 48.015625 11.070312 47.980469 11.425781 47.914062 11.878906 L 50.355469 11.878906 C 50.296875 11.691406 50.273438 11.339844 50.273438 10.835938 L 50.273438 9.277344 C 50.273438 8.617188 50.011719 8.058594 49.488281 7.59375 C 48.894531 7.0625 48.066406 6.796875 47.003906 6.796875 M 54.757812 11.925781 C 53.695312 11.925781 52.910156 11.660156 52.390625 11.128906 C 51.988281 10.695312 51.785156 10.128906 51.785156 9.433594 L 51.785156 7.878906 L 51.707031 6.832031 L 54.128906 6.832031 C 54.085938 7 54.058594 7.355469 54.046875 7.902344 L 54.027344 9.4375 C 54.027344 9.867188 54.113281 10.179688 54.289062 10.367188 C 54.488281 10.601562 54.859375 10.71875 55.398438 10.71875 C 55.777344 10.71875 56.199219 10.59375 56.667969 10.34375 L 56.667969 7.546875 C 56.667969 7.398438 56.65625 7.25 56.628906 7.101562 L 56.589844 6.828125 L 58.929688 6.828125 C 58.902344 6.957031 58.890625 7.195312 58.890625 7.546875 L 58.890625 11.027344 L 58.929688 11.878906 L 56.742188 11.878906 L 56.742188 11.464844 C 56.121094 11.765625 55.460938 11.921875 54.761719 11.921875 M 64.6875 11.910156 C 63.996094 11.917969 63.332031 11.757812 62.871094 11.464844 L 62.871094 11.875 L 60.730469 11.875 C 60.769531 11.746094 60.792969 11.507812 60.792969 11.160156 L 60.792969 5.148438 L 60.730469 4.296875 L 63.03125 4.296875 C 63.003906 4.429688 62.992188 4.71875 62.992188 5.148438 L 62.992188 7.128906 C 63.609375 6.90625 64.214844 6.792969 64.808594 6.792969 C 65.871094 6.792969 66.703125 7.058594 67.308594 7.589844 C 67.820312 8.050781 68.078125 8.613281 68.078125 9.273438 C 68.078125 9.945312 67.808594 10.535156 67.269531 11.035156 C 66.621094 11.617188 65.765625 11.910156 64.6875 11.910156 M 64.382812 7.988281 C 63.941406 7.988281 63.476562 8.113281 62.992188 8.363281 L 62.992188 10.332031 C 63.421875 10.566406 63.847656 10.6875 64.261719 10.6875 C 64.789062 10.6875 65.183594 10.519531 65.453125 10.195312 C 65.667969 9.9375 65.777344 9.632812 65.777344 9.277344 C 65.777344 8.417969 65.3125 7.992188 64.382812 7.992188 "/>
</g>
</svg>
