<?xml version="1.0" encoding="UTF-8"?>
<svg xmlns="http://www.w3.org/2000/svg" xmlns:xlink="http://www.w3.org/1999/xlink" width="71pt" height="20pt" viewBox="0 0 71 20" version="1.1">
<g id="surface1">
<path style=" stroke:none;fill-rule:nonzero;fill:rgb(18.039216%,19.607843%,20%);fill-opacity:1;" d="M 45.765625 8.085938 C 47.191406 7.894531 48.925781 8.074219 49.855469 8.757812 C 50.25 9.027344 50.417969 9.371094 50.566406 9.703125 L 48.683594 9.707031 C 48.414062 8.949219 46.5625 8.644531 45.578125 9.167969 C 44.886719 9.589844 44.761719 10.222656 44.90625 10.773438 C 45.058594 11.195312 45.359375 11.683594 46.132812 11.859375 C 47.234375 12.089844 48.539062 11.679688 48.683594 11.007812 L 50.605469 11.015625 C 50.472656 11.660156 49.921875 12.328125 48.800781 12.59375 C 47.070312 13.015625 44.585938 12.890625 43.582031 11.878906 C 43.742188 11.464844 43.917969 11.039062 43.753906 10.617188 C 43.660156 10.304688 43.371094 10.03125 43.191406 9.734375 C 43.1875 8.929688 44.414062 8.246094 45.761719 8.089844 Z M 45.765625 8.085938 "/>
<path style=" stroke:none;fill-rule:nonzero;fill:rgb(61.568627%,90.196078%,4.313725%);fill-opacity:1;" d="M 26.671875 8.203125 L 28.730469 8.199219 C 29.136719 9.214844 29.363281 10.25 29.859375 11.253906 C 30.359375 10.421875 30.585938 9.550781 31.015625 8.707031 C 31.140625 8.449219 31.496094 8.179688 32.015625 8.199219 C 32.582031 8.160156 32.964844 8.457031 33.078125 8.734375 C 33.484375 9.5625 33.75 10.414062 34.203125 11.238281 C 34.722656 10.242188 35.007812 9.21875 35.386719 8.207031 L 37.394531 8.203125 L 35.625 12.003906 C 35.484375 12.320312 35.238281 12.683594 34.636719 12.796875 C 33.957031 12.886719 33.339844 12.582031 33.175781 12.226562 C 32.75 11.464844 32.449219 10.683594 32.023438 9.917969 L 30.976562 12.1875 C 30.835938 12.527344 30.3125 12.871094 29.636719 12.804688 C 28.988281 12.761719 28.667969 12.398438 28.523438 12.082031 L 26.667969 8.203125 Z M 26.671875 8.203125 "/>
<path style=" stroke:none;fill-rule:nonzero;fill:rgb(18.039216%,19.607843%,20%);fill-opacity:1;" d="M 51.019531 8.203125 L 52.863281 8.199219 L 52.910156 9.339844 C 53.898438 9.378906 54.980469 9.222656 55.890625 9.503906 C 56.675781 9.742188 57.128906 10.242188 57.125 10.738281 L 57.125 12.808594 L 55.335938 12.8125 L 55.328125 10.824219 C 55.351562 10.601562 55.070312 10.367188 54.660156 10.339844 C 54.0625 10.300781 53.464844 10.320312 52.863281 10.328125 L 52.867188 12.808594 L 51.023438 12.808594 Z M 65.15625 8.203125 L 66.90625 8.203125 L 66.902344 9.238281 L 68.304688 9.242188 L 68.300781 10.007812 L 66.882812 10.007812 C 66.921875 10.59375 66.804688 11.183594 66.945312 11.765625 C 67.257812 11.984375 67.8125 11.953125 68.257812 12.023438 L 68.25 12.808594 C 67.246094 12.820312 65.871094 12.894531 65.359375 12.28125 C 64.914062 11.554688 65.246094 10.761719 65.148438 10.011719 L 63.796875 10.003906 L 63.796875 9.246094 L 65.160156 9.238281 Z M 65.15625 8.203125 "/>
<path style=" stroke:none;fill-rule:nonzero;fill:rgb(61.568627%,90.196078%,4.313725%);fill-opacity:1;" d="M 43.140625 11.265625 C 43.175781 10.605469 42.914062 9.855469 41.875 9.460938 C 40.511719 8.972656 38.335938 9.039062 37.421875 9.863281 C 36.65625 10.589844 36.613281 11.617188 37.652344 12.269531 C 38.644531 12.902344 40.40625 12.9375 41.707031 12.617188 C 42.425781 12.453125 42.820312 12.0625 43.09375 11.675781 C 42.519531 11.664062 41.945312 11.664062 41.375 11.671875 C 40.867188 12.011719 39.972656 12.148438 39.261719 11.933594 C 38.8125 11.8125 38.71875 11.511719 38.578125 11.273438 Z M 38.53125 10.574219 C 38.738281 10.222656 39.253906 9.914062 39.972656 9.976562 C 40.679688 9.914062 41.160156 10.234375 41.359375 10.574219 C 40.417969 10.589844 39.476562 10.589844 38.53125 10.574219 Z M 38.53125 10.574219 "/>
<path style=" stroke:none;fill-rule:nonzero;fill:rgb(18.039216%,19.607843%,20%);fill-opacity:1;" d="M 63.496094 10.394531 C 63.460938 9.78125 62.5 9.296875 61.453125 9.234375 C 60.414062 9.171875 59.238281 9.171875 58.382812 9.5625 C 57.925781 9.746094 57.78125 10.066406 57.664062 10.359375 C 58.199219 10.367188 58.734375 10.367188 59.269531 10.363281 C 59.574219 9.851562 60.765625 9.785156 61.480469 10.050781 C 61.753906 10.179688 61.730469 10.394531 61.804688 10.570312 C 60.683594 10.597656 59.453125 10.476562 58.457031 10.839844 C 57.507812 11.152344 57.335938 11.921875 57.886719 12.425781 C 58.269531 12.75 59.023438 12.808594 59.667969 12.808594 L 63.507812 12.808594 Z M 59.378906 11.867188 C 59.296875 11.691406 59.476562 11.53125 59.578125 11.371094 C 60.292969 11.28125 61.023438 11.269531 61.753906 11.277344 L 61.753906 12.121094 C 60.964844 12.09375 59.992188 12.234375 59.378906 11.867188 Z M 59.378906 11.867188 "/>
<path style=" stroke:none;fill-rule:nonzero;fill:rgb(61.568627%,90.196078%,4.313725%);fill-opacity:1;" d="M 15.375 5.425781 C 13.054688 4.691406 10.160156 4.578125 7.660156 5.089844 C 6.019531 5.421875 4.53125 6.039062 3.613281 6.882812 C 2.777344 7.644531 2.464844 8.59375 2.871094 9.460938 C 3.273438 10.429688 4.460938 11.238281 5.90625 11.777344 L 5.109375 13.117188 L 7.839844 12.300781 C 8.941406 12.496094 10.09375 12.59375 11.25 12.570312 C 10.949219 12.074219 10.875 11.539062 11.011719 11.023438 C 11.230469 10.304688 11.921875 9.644531 12.875 9.15625 C 14.480469 8.3125 16.757812 7.953125 18.925781 8.039062 C 18.519531 6.917969 17.125 5.972656 15.375 5.425781 Z M 9.148438 7.457031 C 8.988281 7.894531 7.945312 8.105469 7.335938 7.8125 C 6.628906 7.53125 6.828125 6.835938 7.660156 6.695312 C 8.472656 6.519531 9.394531 6.984375 9.148438 7.457031 Z M 14.792969 7.328125 C 14.800781 7.835938 13.605469 8.148438 12.933594 7.804688 C 12.238281 7.527344 12.4375 6.84375 13.253906 6.699219 C 13.984375 6.539062 14.847656 6.886719 14.792969 7.328125 Z M 14.792969 7.328125 "/>
<path style=" stroke:none;fill-rule:nonzero;fill:rgb(18.039216%,19.607843%,20%);fill-opacity:1;" d="M 24.617188 10.390625 C 24.050781 9.667969 22.980469 9.09375 21.738281 8.742188 C 19.546875 8.113281 16.820312 8.121094 14.636719 8.753906 C 13.117188 9.195312 11.847656 9.984375 11.488281 10.941406 C 11.191406 11.644531 11.457031 12.402344 12.121094 13.019531 C 13.109375 13.941406 14.894531 14.53125 16.75 14.71875 C 18.09375 14.875 19.484375 14.785156 20.789062 14.570312 C 21.570312 14.742188 22.273438 15.019531 23.03125 15.222656 C 22.835938 14.855469 22.628906 14.488281 22.40625 14.121094 C 23.253906 13.78125 24.027344 13.355469 24.496094 12.820312 C 25.1875 12.078125 25.230469 11.15625 24.617188 10.390625 Z M 16.988281 10.667969 C 16.796875 11.011719 15.910156 11.113281 15.484375 10.851562 C 15.015625 10.613281 15.199219 10.109375 15.8125 10 C 16.5 9.839844 17.289062 10.28125 16.988281 10.667969 Z M 21.453125 10.714844 C 21.21875 11.023438 20.402344 11.09375 19.996094 10.855469 C 19.800781 10.757812 19.753906 10.605469 19.675781 10.472656 C 19.78125 10.234375 20.0625 9.984375 20.546875 9.972656 C 21.214844 9.921875 21.804688 10.378906 21.453125 10.714844 Z M 21.453125 10.714844 "/>
</g>
</svg>
